# xmcd
#
# Track frame offsets: 
#        150
#        23455
#        45995
#        67377
#        89257
#        114689
#        135019
#        154978
#        176736
#
# Disc length: 2626 seconds
#
# Revision: 0
# Processed by: cddbd v1.5.2PL0 Copyright (c) Steve Scherf et al.
# Submitted via: ExactAudioCopyFreeDBPlugin 1.0
#
DISCID=6e0a4009
DTITLE=Samba Touré - Wande
DYEAR=2018
DGENRE=Blues
TTITLE0=Yo Pouhala - Blah Blah Blah
TTITLE1=Hawah
TTITLE2=Yerfara - We Are Tired
TTITLE3=Goy Boyro - The Good Work (Well Done)
TTITLE4=Wande - The Beloved
TTITLE5=Irganda - It Is Our Land
TTITLE6=Mana Yero Koy - Where To Go?
TTITLE7=Hayame - Be Careful!
TTITLE8=Tribute To Zoumana Tereta
EXTD=
EXTT0=
EXTT1=
EXTT2=
EXTT3=
EXTT4=
EXTT5=
EXTT6=
EXTT7=
EXTT8=
PLAYORDER=
